<?xml version="1.0" encoding="UTF-8" standalone="no"?>
<svg
   xmlns:dc="http://purl.org/dc/elements/1.1/"
   xmlns:cc="http://creativecommons.org/ns#"
   xmlns:rdf="http://www.w3.org/1999/02/22-rdf-syntax-ns#"
   xmlns:svg="http://www.w3.org/2000/svg"
   xmlns="http://www.w3.org/2000/svg"
   xmlns:sodipodi="http://sodipodi.sourceforge.net/DTD/sodipodi-0.dtd"
   xmlns:inkscape="http://www.inkscape.org/namespaces/inkscape"
   enable-background="new 0 0 64 64"
   version="1.1"
   viewBox="0 0 64 64"
   xml:space="preserve"
   id="svg55"
   sodipodi:docname="gamify-github.svg"
   inkscape:version="0.92.4 5da689c313, 2019-01-14"><metadata
     id="metadata61"><rdf:RDF><cc:Work
         rdf:about=""><dc:format>image/svg+xml</dc:format><dc:type
           rdf:resource="http://purl.org/dc/dcmitype/StillImage" /><dc:title></dc:title></cc:Work></rdf:RDF></metadata><defs
     id="defs59" /><sodipodi:namedview
     pagecolor="#ffffff"
     bordercolor="#666666"
     borderopacity="1"
     objecttolerance="10"
     gridtolerance="10"
     guidetolerance="10"
     inkscape:pageopacity="0"
     inkscape:pageshadow="2"
     inkscape:window-width="2558"
     inkscape:window-height="1420"
     id="namedview57"
     showgrid="false"
     inkscape:zoom="13.490272"
     inkscape:cx="23.964646"
     inkscape:cy="37.655282"
     inkscape:window-x="0"
     inkscape:window-y="18"
     inkscape:window-maximized="0"
     inkscape:current-layer="svg55" /><g
     id="Layer_3"
     transform="translate(0.14825498,0.22238248)"><g
       id="g50"><g
         id="g48"><path
           d="M 32,0 C 14.327,0 0,14.327 0,32 0,49.673 14.327,64 32,64 49.673,64 64,49.673 64,32 64,14.327 49.673,0 32,0 Z"
           id="path46"
           inkscape:connector-curvature="0"
           style="fill:#333333" /></g></g><g
       id="Outline_Filled"><path
         d="m 38.592,50.166 h -4.84 -4.844 c 0,0 0.014,-2.874 0,-4.844 -6.629,1.428 -8.479,-3.633 -8.479,-3.633 -1.21,-2.423 -2.423,-3.633 -2.423,-3.633 -2.423,-1.438 0,-1.21 0,-1.21 2.423,0 3.633,2.423 3.633,2.423 2.126,3.609 5.908,3.028 7.266,2.423 0,-1.21 0.53,-3.042 1.21,-3.633 -5.29,-0.595 -9.693,-3.633 -9.693,-9.689 0,-6.056 1.216,-7.266 2.427,-8.479 -0.244,-0.597 -1.259,-2.805 0.037,-6.056 0,0 2.38,0 4.803,3.633 1.2,-1.2 4.844,-1.21 6.056,-1.21 1.208,0 4.854,0.01 6.054,1.21 2.423,-3.633 4.809,-3.633 4.809,-3.633 1.296,3.251 0.282,5.459 0.037,6.056 1.21,1.21 2.423,2.423 2.423,8.479 0,6.056 -4.397,9.092 -9.689,9.689 0.682,0.591 1.21,2.675 1.21,3.633 l 0.003,8.474 z"
         id="Cat_3_"
         inkscape:connector-curvature="0"
         style="fill:#ffffff" /></g></g><path
     inkscape:connector-curvature="0"
     d="m 44.778384,22.513793 c -0.61946,-0.598827 -1.341387,-1.068638 -2.145338,-1.397681 -0.833968,-0.340543 -1.718132,-0.513316 -2.629208,-0.513316 H 27.682454 c -0.910817,0 -1.79524,0.172531 -2.628691,0.513316 -0.804209,0.328793 -1.526136,0.798854 -2.145593,1.397681 -0.619719,0.598578 -1.105918,1.296167 -1.44644,2.073269 -0.352425,0.805352 -0.531484,1.660212 -0.531484,2.539826 0,0.880613 0.178533,1.734724 0.531484,2.540079 0.340261,0.777101 0.826721,1.474191 1.44644,2.073517 0.619457,0.598578 1.341384,1.068387 2.145593,1.39718 0.833709,0.340293 1.717874,0.513817 2.628691,0.513817 1.064517,0 2.125411,-0.245784 3.068315,-0.711841 0.633172,-0.312542 1.216146,-0.725096 1.719424,-1.213657 h 2.745389 c 0.503536,0.488561 1.086771,0.901115 1.719684,1.213657 0.943162,0.465808 2.004056,0.711841 3.068056,0.711841 0.911074,0 1.79524,-0.173022 2.628948,-0.513817 0.803952,-0.328541 1.525617,-0.798602 2.145076,-1.39718 0.619721,-0.599076 1.106436,-1.296416 1.44644,-2.073517 0.352423,-0.805355 0.531224,-1.659714 0.531224,-2.540079 0,-0.880112 -0.17827,-1.734474 -0.531224,-2.539826 C 45.884559,23.81021 45.3981,23.11262 44.778384,22.513793 Z m -4.774546,9.426717 c -1.629121,0 -3.076075,-0.756348 -3.984822,-1.925498 h -4.351738 c -0.90875,1.16915 -2.355447,1.925498 -3.984824,1.925498 -2.750823,0 -4.980771,-2.154526 -4.980771,-4.813121 0,-2.658095 2.230206,-4.813121 4.980771,-4.813121 h 12.321384 c 2.751341,0 4.981547,2.155026 4.981547,4.813121 -5.19e-4,2.658342 -2.230206,4.813121 -4.981547,4.813121 z"
     id="path139"
     style="fill:#515151;stroke-width:0.25435615;fill-opacity:0.94117647" /><path
     inkscape:connector-curvature="0"
     d="M 29.845508,25.981406 H 28.36246 v -1.476358 c 0,-0.271591 -0.221363,-0.492291 -0.494089,-0.492291 h -0.988697 c -0.272983,0 -0.494348,0.220436 -0.494348,0.492291 v 1.476358 H 24.90254 c -0.272983,0 -0.494094,0.220435 -0.494094,0.492546 v 0.984578 c 0,0.271847 0.221364,0.492547 0.494094,0.492547 h 1.482786 v 1.476357 c 0,0.272105 0.221365,0.492291 0.494348,0.492291 h 0.988697 c 0.272983,0 0.494089,-0.219928 0.494089,-0.492291 v -1.476357 h 1.483048 c 0.272983,0 0.494348,-0.220435 0.494348,-0.492547 v -0.984578 c 0,-0.272104 -0.221614,-0.492546 -0.494348,-0.492546 z"
     id="path149"
     style="fill:#515151;stroke-width:0.25626913;fill-opacity:1" /><ellipse
     cx="37.953274"
     cy="27.343956"
     id="circle147-5"
     style="fill:#515151;fill-opacity:1;stroke-width:0.34740755"
     rx="1.3558319"
     ry="1.3187681" /><ellipse
     cx="40.399483"
     cy="24.638302"
     id="circle147-5-6"
     style="fill:#515151;fill-opacity:1;stroke-width:0.34740755"
     rx="1.3558319"
     ry="1.3187681" /><ellipse
     cx="40.547741"
     cy="29.604843"
     id="circle147-5-6-2"
     style="fill:#515151;fill-opacity:1;stroke-width:0.34740755"
     rx="1.3558319"
     ry="1.3187681" /><ellipse
     cx="42.919819"
     cy="27.158636"
     id="circle147-5-6-2-9"
     style="fill:#515151;fill-opacity:1;stroke-width:0.34740755"
     rx="1.3558319"
     ry="1.3187681" /></svg>